<svg xmlns="http://www.w3.org/2000/svg" width="1256" height="1042" viewBox="0 0 1256 1042" role="img" aria-labelledby="title desc">
  <title id="title">Nemotron-Personas-USA data designer flow</title>
  <desc id="desc">Data designer flow showing grounded personal details and personality traits feeding two LLM stages, then generating domain-specific personas.</desc>
  <defs>
    <marker id="arrow" markerWidth="10" markerHeight="10" refX="9" refY="3" orient="auto" markerUnits="strokeWidth">
      <path d="M0,0 L0,6 L9,3 z" fill="#111111" />
    </marker>
    <style>
      .label { font-family: Arial, Helvetica, sans-serif; fill: #111111; }
      .green { fill: #5cad00; }
      .input { fill: #5f5f5f; }
      .mid { fill: #cccccc; }
      .out { fill: #66bd00; }
      .thin { stroke: #111111; stroke-width: 2; fill: none; marker-end: url(#arrow); }
      .line { stroke: #111111; stroke-width: 2; fill: none; }
      .box { fill: #ffffff; stroke: #66bd00; stroke-width: 2; }
    </style>
  </defs>

  <rect x="1" y="1" width="1254" height="1040" fill="#ffffff" />
  <rect x="13" y="15" width="1230" height="1016" fill="none" stroke="#66bd00" stroke-width="2.5" stroke-dasharray="18 10" />
  <text x="28" y="46" class="label green" font-size="23" font-weight="700">Data Designer</text>

  <text x="402" y="83" class="label" font-size="26" text-anchor="middle">Grounded</text>
  <text x="402" y="110" class="label" font-size="26" text-anchor="middle">Personal Details</text>
  <rect x="292" y="122" width="220" height="78" rx="9" class="input" />
  <text x="402" y="168" class="label" font-size="26" fill="#ffffff" text-anchor="middle">PGM</text>

  <text x="852" y="83" class="label" font-size="26" text-anchor="middle">Grounded</text>
  <text x="852" y="110" class="label" font-size="26" text-anchor="middle">Personality Traits</text>
  <rect x="742" y="122" width="220" height="78" rx="9" class="input" />
  <text x="852" y="168" class="label" font-size="26" fill="#ffffff" text-anchor="middle">OCEAN</text>

  <circle cx="626" cy="337" r="69" class="mid" />
  <text x="626" y="345" class="label" font-size="26" text-anchor="middle">LLM A</text>

  <circle cx="626" cy="727" r="69" class="mid" />
  <text x="626" y="735" class="label" font-size="26" text-anchor="middle">LLM B</text>

  <path d="M396 219 L396 340 L530 340" class="thin" />
  <path d="M854 219 L854 340 L728 340" class="thin" />

  <rect x="136" y="477" width="220" height="78" rx="12" class="box" />
  <text x="246" y="511" class="label" font-size="26" text-anchor="middle">Cultural</text>
  <text x="246" y="539" class="label" font-size="26" text-anchor="middle">Background</text>

  <rect x="389" y="477" width="220" height="78" rx="12" class="box" />
  <text x="499" y="511" class="label" font-size="26" text-anchor="middle">Skills &amp;</text>
  <text x="499" y="539" class="label" font-size="26" text-anchor="middle">Expertise</text>

  <rect x="641" y="477" width="220" height="78" rx="12" class="box" />
  <text x="751" y="511" class="label" font-size="26" text-anchor="middle">Goals &amp;</text>
  <text x="751" y="539" class="label" font-size="26" text-anchor="middle">Ambitions</text>

  <rect x="893" y="477" width="220" height="78" rx="12" class="box" />
  <text x="1003" y="511" class="label" font-size="26" text-anchor="middle">Hobbies &amp;</text>
  <text x="1003" y="539" class="label" font-size="26" text-anchor="middle">Interests</text>

  <path d="M532 392 L294 449" class="thin" />
  <path d="M580 408 L510 453" class="thin" />
  <path d="M662 408 L718 453" class="thin" />
  <path d="M710 392 L969 441" class="thin" />

  <path d="M307 581 L542 666" class="thin" />
  <path d="M514 565 L574 636" class="thin" />
  <path d="M740 565 L664 630" class="thin" />
  <path d="M1008 570 L700 694" class="thin" />

  <path d="M273 161 L108 161 L108 728 L523 728" class="thin" />
  <path d="M979 161 L1145 161 L1145 728 L729 728" class="thin" />

  <rect x="118" y="881" width="180" height="76" rx="10" class="out" />
  <text x="208" y="913" class="label" font-size="24" font-weight="700" text-anchor="middle">Overall</text>
  <text x="208" y="939" class="label" font-size="24" font-weight="700" text-anchor="middle">Persona</text>

  <rect x="327" y="881" width="180" height="76" rx="10" class="out" />
  <text x="417" y="913" class="label" font-size="24" font-weight="700" text-anchor="middle">Professional</text>
  <text x="417" y="939" class="label" font-size="24" font-weight="700" text-anchor="middle">Persona</text>

  <rect x="536" y="881" width="180" height="76" rx="10" class="out" />
  <text x="626" y="913" class="label" font-size="24" font-weight="700" text-anchor="middle">Arts</text>
  <text x="626" y="939" class="label" font-size="24" font-weight="700" text-anchor="middle">Persona</text>

  <rect x="750" y="881" width="180" height="76" rx="10" class="out" />
  <text x="840" y="913" class="label" font-size="24" font-weight="700" text-anchor="middle">Sports</text>
  <text x="840" y="939" class="label" font-size="24" font-weight="700" text-anchor="middle">Persona</text>

  <rect x="964" y="881" width="180" height="76" rx="10" class="out" />
  <text x="1054" y="926" class="label" font-size="28" font-weight="700" text-anchor="middle">...</text>

  <path d="M520 800 L280 858" class="thin" />
  <path d="M553 815 L468 858" class="thin" />
  <path d="M626 818 L626 858" class="thin" />
  <path d="M696 806 L797 858" class="thin" />
  <path d="M733 800 L998 858" class="thin" />
</svg>
